<svg xmlns="http://www.w3.org/2000/svg" fill="none" viewBox="0 0 169 52">
  <rect width="167.406" height="51" x=".531" y=".5" fill="#fff" stroke="#000" rx="10.5"/>
  <path fill="#000" d="M55.852 18.188V9.855h2.351c.725 0 1.366.16 1.923.48.557.321.986.777 1.287 1.368.306.592.46 1.27.464 2.037v.533c0 .785-.153 1.474-.458 2.065a3.177 3.177 0 01-1.299 1.362c-.56.317-1.215.479-1.962.486h-2.306zm1.098-7.428v6.53h1.156c.847 0 1.505-.264 1.974-.79.473-.527.71-1.277.71-2.25v-.486c0-.946-.224-1.68-.67-2.203-.442-.526-1.072-.793-1.888-.8H56.95zM64.033 15.035c0-.607.118-1.152.355-1.637.24-.484.572-.858.996-1.121a2.725 2.725 0 011.459-.395c.843 0 1.524.292 2.042.875.523.584.784 1.36.784 2.33v.074c0 .602-.116 1.144-.349 1.625a2.607 2.607 0 01-.99 1.115c-.427.267-.919.4-1.476.4-.84 0-1.52-.29-2.043-.874-.518-.584-.778-1.357-.778-2.318v-.074zm1.064.126c0 .686.159 1.237.475 1.653.32.416.748.624 1.282.624.538 0 .965-.21 1.282-.63.317-.423.475-1.014.475-1.773 0-.68-.162-1.229-.487-1.648a1.527 1.527 0 00-1.281-.635 1.52 1.52 0 00-1.265.623c-.32.416-.48 1.011-.48 1.786zM77.416 16.728l1.19-4.732h1.059l-1.803 6.191h-.858L75.5 13.495l-1.465 4.693h-.858l-1.797-6.192h1.053l1.219 4.635 1.442-4.635h.853l1.47 4.732zM82.685 11.996l.034.778c.474-.595 1.092-.892 1.855-.892 1.308 0 1.968.738 1.98 2.214v4.091h-1.06V14.09c-.003-.446-.106-.776-.308-.99-.199-.213-.51-.32-.933-.32-.343 0-.645.092-.904.275-.26.183-.462.423-.607.72v4.412h-1.058v-6.19h1.001zM90.237 18.188H89.18v-8.79h1.058v8.79zM92.594 15.035c0-.607.118-1.152.355-1.637.24-.484.572-.858.995-1.121a2.725 2.725 0 011.46-.395c.843 0 1.523.292 2.042.875.523.584.784 1.36.784 2.33v.074c0 .602-.116 1.144-.349 1.625a2.607 2.607 0 01-.99 1.115c-.427.267-.92.4-1.476.4-.84 0-1.52-.29-2.043-.874-.519-.584-.778-1.357-.778-2.318v-.074zm1.064.126c0 .686.159 1.237.475 1.653.32.416.748.624 1.282.624.538 0 .965-.21 1.282-.63.316-.423.475-1.014.475-1.773 0-.68-.162-1.229-.487-1.648a1.527 1.527 0 00-1.282-.635 1.52 1.52 0 00-1.264.623c-.32.416-.48 1.011-.48 1.786zM104.318 18.188c-.062-.123-.111-.34-.149-.653-.492.511-1.08.767-1.763.767-.61 0-1.112-.172-1.505-.515a1.688 1.688 0 01-.583-1.316c0-.645.244-1.145.732-1.5.492-.358 1.183-.537 2.072-.537h1.03v-.486c0-.37-.111-.664-.332-.882-.222-.221-.548-.332-.979-.332-.377 0-.694.096-.95.287-.255.19-.383.421-.383.692h-1.064c0-.31.108-.607.326-.893.221-.29.519-.519.892-.686a3.025 3.025 0 011.242-.252c.714 0 1.272.18 1.677.538.404.354.614.845.629 1.47v2.85c0 .568.073 1.02.218 1.356v.091h-1.11zm-1.757-.807c.332 0 .646-.086.944-.258.298-.172.513-.395.647-.67v-1.27h-.83c-1.297 0-1.946.38-1.946 1.14 0 .331.111.59.332.777.222.187.506.28.853.28zM107.55 15.04c0-.95.225-1.712.675-2.288.45-.58 1.039-.87 1.768-.87.725 0 1.299.248 1.722.744V9.398h1.059v8.79h-.973l-.051-.664c-.424.518-1.013.778-1.769.778-.717 0-1.302-.294-1.756-.881-.45-.588-.675-1.354-.675-2.3v-.08zm1.058.12c0 .702.145 1.252.435 1.648.29.397.69.596 1.202.596.671 0 1.161-.302 1.47-.904v-2.844c-.316-.584-.803-.876-1.459-.876-.519 0-.923.2-1.213.601-.29.4-.435.994-.435 1.78zM118.923 15.035c0-.607.118-1.152.355-1.637.24-.484.572-.858.996-1.121a2.723 2.723 0 011.459-.395c.843 0 1.524.292 2.042.875.523.584.784 1.36.784 2.33v.074c0 .602-.116 1.144-.349 1.625a2.609 2.609 0 01-.99 1.115c-.427.267-.919.4-1.476.4-.839 0-1.52-.29-2.043-.874-.518-.584-.778-1.357-.778-2.318v-.074zm1.064.126c0 .686.159 1.237.475 1.653.321.416.748.624 1.282.624.538 0 .965-.21 1.282-.63.316-.423.475-1.014.475-1.773 0-.68-.162-1.229-.487-1.648a1.525 1.525 0 00-1.281-.635c-.523 0-.944.207-1.265.623-.32.416-.481 1.011-.481 1.786zM127.826 11.996l.034.778c.473-.595 1.091-.892 1.854-.892 1.308 0 1.968.738 1.98 2.214v4.091h-1.059V14.09c-.004-.446-.107-.776-.309-.99-.198-.213-.509-.32-.932-.32-.344 0-.645.092-.904.275-.26.183-.462.423-.607.72v4.412h-1.059v-6.19h1.002zM126.486 35.21c0 1.544-.342 2.771-1.025 3.68-.684.904-1.6 1.356-2.747 1.356-1.355 0-2.393-.477-3.113-1.429v5.054h-1.089V30.156h1.016l.055 1.401c.714-1.056 1.749-1.584 3.104-1.584 1.184 0 2.111.449 2.783 1.346.677.897 1.016 2.143 1.016 3.736v.155zm-1.099-.192c0-1.264-.259-2.261-.778-2.994-.519-.732-1.242-1.099-2.17-1.099-.671 0-1.248.162-1.73.486-.482.323-.851.793-1.108 1.41v4.751c.263.568.638 1.001 1.126 1.3.489.3 1.065.449 1.731.449.921 0 1.638-.366 2.151-1.099.519-.738.778-1.806.778-3.204zM130.148 40.063h-1.099V26h1.099v14.063zM139.386 40.063c-.11-.312-.18-.773-.211-1.383a3.85 3.85 0 01-1.474 1.163 4.514 4.514 0 01-1.886.403c-.952 0-1.724-.266-2.316-.797-.586-.53-.879-1.202-.879-2.014 0-.964.4-1.727 1.199-2.289.806-.561 1.926-.842 3.36-.842h1.987v-1.126c0-.708-.22-1.264-.659-1.666-.434-.41-1.068-.614-1.904-.614-.763 0-1.395.195-1.896.586-.5.39-.75.86-.75 1.41l-1.099-.01c0-.787.366-1.467 1.099-2.04.732-.58 1.632-.87 2.7-.87 1.105 0 1.975.277 2.61.832.641.55.97 1.319.988 2.308V37.8c0 .958.101 1.676.303 2.152v.11h-1.172zm-3.443-.788c.733 0 1.386-.177 1.96-.53a3.119 3.119 0 001.263-1.42v-2.179h-1.959c-1.093.012-1.947.214-2.564.604-.616.385-.924.916-.924 1.593 0 .556.204 1.017.613 1.383.415.366.952.55 1.611.55zM146.179 38.488l2.893-8.331h1.181l-4.23 11.59-.219.513c-.544 1.202-1.383 1.803-2.518 1.803a3.07 3.07 0 01-.842-.128l-.01-.906.568.055c.537 0 .971-.135 1.3-.403.336-.262.62-.717.852-1.364l.485-1.337-3.736-9.823h1.2l3.076 8.33z"/>
  <path fill="#000" fill-rule="evenodd" d="M63.382 31.937v2.07l4.946-.006c-.153 1.142-.538 1.978-1.122 2.562-.723.723-1.847 1.516-3.825 1.516-3.048 0-5.432-2.457-5.432-5.504 0-3.048 2.384-5.505 5.432-5.505 1.644 0 2.846.648 3.732 1.479l1.461-1.461C67.338 25.906 65.694 25 63.384 25c-4.175 0-7.685 3.4-7.685 7.575 0 4.175 3.511 7.575 7.685 7.575 2.253 0 3.952-.739 5.283-2.124 1.368-1.367 1.792-3.288 1.792-4.84 0-.462-.036-.888-.103-1.249h-6.974zm41.72 7.918V25.56h-2.089v14.295h2.089zm-18.362.298c2.696 0 4.894-2.07 4.894-4.878 0-2.827-2.196-4.877-4.894-4.877-2.695 0-4.893 2.051-4.893 4.877 0 2.809 2.198 4.878 4.893 4.878zm.002-7.834c1.477 0 2.75 1.201 2.75 2.956 0 1.736-1.273 2.957-2.75 2.957s-2.75-1.22-2.75-2.957c0-1.756 1.272-2.956 2.75-2.956zm-10.56 7.835c2.696 0 4.894-2.07 4.894-4.878 0-2.828-2.197-4.878-4.894-4.878-2.695 0-4.893 2.05-4.893 4.878 0 2.809 2.198 4.878 4.893 4.878zm.002-7.834c1.477 0 2.75 1.201 2.75 2.956 0 1.736-1.273 2.956-2.75 2.956s-2.75-1.219-2.75-2.956c0-1.756 1.272-2.956 2.75-2.956zm25.564-1.626v.003h-2.032v.794h-.076c-.48-.574-1.404-1.09-2.568-1.09-2.44 0-4.674 2.14-4.674 4.894 0 2.734 2.234 4.857 4.674 4.859 1.165 0 2.089-.517 2.568-1.11h.076v.703c0 1.868-.998 2.86-2.605 2.86-1.312 0-2.125-.939-2.457-1.732l-1.864.776c.535 1.293 1.959 2.875 4.323 2.875 2.511 0 4.635-1.472 4.635-5.074v-8.755h.002l-.002-.003zm-1.882 4.601c0-1.717-1.145-2.973-2.604-2.973-1.478 0-2.716 1.255-2.716 2.973 0 1.7 1.238 2.938 2.716 2.938 1.46 0 2.604-1.238 2.604-2.938zm13.38 1.585l1.662 1.11c-.537.793-1.83 2.16-4.064 2.16-2.771 0-4.84-2.142-4.84-4.877 0-2.901 2.088-4.877 4.601-4.877 2.531 0 3.771 2.014 4.174 3.102l.222.555-6.521 2.7c.5.979 1.276 1.478 2.364 1.478 1.092 0 1.848-.537 2.402-1.35zm-5.118-1.754l4.359-1.81c-.24-.61-.961-1.034-1.809-1.034-1.089 0-2.605.962-2.55 2.844zM13.531 12.516v26.971c0 .939.543 1.75 1.332 2.138L30.47 25.997 14.87 10.375a2.38 2.38 0 00-1.338 2.14zm4.831 28.299l17.06-9.862-3.605-3.61-13.455 13.472zM40.724 24.11c.567.435.933 1.12.933 1.891 0 .76-.355 1.435-.908 1.871l-3.623 2.095-3.966-3.97 3.963-3.968 3.6 2.081zm-5.306-3.068l-17.047-9.855L31.816 24.65l3.602-3.607z" clip-rule="evenodd"/>
</svg>
