<svg width="48" height="29" viewBox="0 0 48 29" fill="none" xmlns="http://www.w3.org/2000/svg">
<path d="M4.24865 9.26849C3.44867 5.24811 6.52447 1.5 10.6237 1.5H38.2513C42.3505 1.5 45.4263 5.24812 44.6264 9.2685L42.0396 22.2685C41.4345 25.3097 38.7654 27.5 35.6646 27.5H13.2104C10.1096 27.5 7.44052 25.3097 6.83538 22.2685L4.24865 9.26849Z" stroke="black" stroke-width="3"/>
<rect x="10.4922" y="13" width="27.8903" height="3" rx="1.5" fill="black"/>
<ellipse cx="12.8957" cy="8.5" rx="1.4426" ry="1.5" fill="black"/>
<ellipse cx="18.6653" cy="8.5" rx="1.4426" ry="1.5" fill="black"/>
<ellipse cx="24.4348" cy="8.5" rx="1.4426" ry="1.5" fill="black"/>
<ellipse cx="30.2082" cy="8.5" rx="1.4426" ry="1.5" fill="black"/>
<ellipse cx="35.9778" cy="8.5" rx="1.4426" ry="1.5" fill="black"/>
<ellipse cx="15.7824" cy="21.5" rx="1.4426" ry="1.5" fill="black"/>
<ellipse cx="21.552" cy="21.5" rx="1.4426" ry="1.5" fill="black"/>
<ellipse cx="27.3215" cy="21.5" rx="1.4426" ry="1.5" fill="black"/>
<ellipse cx="33.0949" cy="21.5" rx="1.4426" ry="1.5" fill="black"/>
</svg>
