<svg xmlns="http://www.w3.org/2000/svg" fill="none" viewBox="0 0 169 52">
  <rect width="167.406" height="51" x=".5" y=".5" fill="#fff" stroke="#000" rx="10.5"/>
  <path fill="#000" d="M54.926 9.93v8.258h2.832c2.455 0 3.897-1.528 3.897-4.132 0-2.597-1.448-4.125-3.897-4.125h-2.832zm1.03.928h1.733c1.877 0 2.913 1.144 2.913 3.21 0 2.048-1.041 3.193-2.912 3.193h-1.734v-6.403zM66.289 18.245c1.734 0 2.844-1.23 2.844-3.142 0-1.916-1.11-3.14-2.844-3.14-1.734 0-2.844 1.224-2.844 3.14 0 1.912 1.11 3.142 2.844 3.142zm0-.887c-1.145 0-1.831-.841-1.831-2.255 0-1.413.68-2.254 1.83-2.254 1.151 0 1.832.835 1.832 2.255 0 1.413-.681 2.254-1.831 2.254zM78.922 12.02h-.984l-1.253 5.04h-.023l-1.413-5.04h-.962l-1.413 5.04h-.023l-1.253-5.04h-.984l1.728 6.168h1.007l1.408-4.795h.022l1.408 4.795h1.007l1.728-6.169zM80.707 18.188h.995v-3.582c0-1.059.67-1.757 1.683-1.757.972 0 1.499.55 1.499 1.556v3.783h.995v-3.954c0-1.402-.84-2.272-2.197-2.272-.956 0-1.625.36-2.014 1.059h-.023v-1.002h-.938v6.169zM88.201 18.188h.996V9.57h-.996v8.618zM94.083 18.245c1.734 0 2.844-1.23 2.844-3.142 0-1.916-1.11-3.14-2.844-3.14-1.734 0-2.844 1.224-2.844 3.14 0 1.912 1.11 3.142 2.844 3.142zm0-.887c-1.144 0-1.831-.841-1.831-2.255 0-1.413.68-2.254 1.83-2.254 1.151 0 1.832.835 1.832 2.255 0 1.413-.681 2.254-1.831 2.254zM100.926 17.38c-.779 0-1.276-.371-1.276-.943 0-.595.48-.933 1.407-.99l1.614-.103v.498c0 .887-.738 1.539-1.745 1.539zm-.212.865c.864 0 1.636-.44 1.985-1.127h.023v1.07h.944v-4.235c0-1.213-.938-1.99-2.397-1.99-1.293 0-2.306.795-2.335 1.836h.956c.12-.584.652-.95 1.367-.95.91 0 1.414.424 1.414 1.19v.515l-1.728.103c-1.5.092-2.312.716-2.312 1.774 0 1.093.83 1.814 2.083 1.814zM108.266 18.245c.893 0 1.596-.39 1.997-1.099h.017v1.042h.95V9.57h-.996v3.45h-.022c-.378-.675-1.088-1.058-1.969-1.058-1.533 0-2.621 1.259-2.621 3.142 0 1.882 1.093 3.14 2.644 3.14zm.177-5.396c1.07 0 1.797.916 1.797 2.255 0 1.344-.727 2.254-1.797 2.254-1.081 0-1.802-.887-1.802-2.255 0-1.361.721-2.254 1.802-2.254zM119.863 18.245c1.734 0 2.844-1.23 2.844-3.142 0-1.916-1.11-3.14-2.844-3.14-1.734 0-2.844 1.224-2.844 3.14 0 1.912 1.11 3.142 2.844 3.142zm0-.887c-1.145 0-1.831-.841-1.831-2.255 0-1.413.681-2.254 1.831-2.254s1.831.835 1.831 2.255c0 1.413-.681 2.254-1.831 2.254zM124.691 18.188h.996v-3.582c0-1.059.669-1.757 1.682-1.757.973 0 1.499.55 1.499 1.556v3.783h.996v-3.954c0-1.402-.841-2.272-2.197-2.272-.956 0-1.625.36-2.014 1.059h-.023v-1.002h-.939v6.169zM136.196 10.629v1.39h-.858v.824h.858v3.742c0 1.185.435 1.648 1.551 1.648a3.6 3.6 0 00.641-.051v-.841a4.144 4.144 0 01-.429.028c-.527 0-.767-.257-.767-.823v-3.703h1.202v-.824h-1.202v-1.39h-.996zM140.493 18.188h.995V14.64c0-1.081.699-1.791 1.74-1.791.978 0 1.562.595 1.562 1.58v3.759h.996V14.25c0-1.373-.91-2.289-2.261-2.289-.944 0-1.63.36-2.014 1.059h-.023V9.57h-.995v8.617zM150.505 12.838c.973 0 1.637.698 1.66 1.745h-3.393c.068-1.042.766-1.745 1.733-1.745zm1.637 3.587c-.177.578-.778.944-1.551.944-1.098 0-1.819-.76-1.819-1.934v-.057h4.429v-.389c0-1.865-1.03-3.027-2.678-3.027-1.683 0-2.781 1.253-2.781 3.164 0 1.912 1.093 3.119 2.826 3.119 1.316 0 2.386-.761 2.558-1.82h-.984zM65.993 40.844h2.622L62.85 24.881h-2.677L54.41 40.844h2.578l1.46-4.314h6.084l1.46 4.314zm-4.536-13.308h.066l2.379 7.002h-4.823l2.378-7.002zM76.325 28.708c-1.67 0-3.153.819-3.828 2.113h-.055v-1.99H70.13v15.94h2.4v-5.896h.045c.72 1.328 2.08 2.09 3.805 2.09 3.02 0 5.023-2.41 5.023-6.128 0-3.728-2.013-6.129-5.078-6.129zm-.608 10.222c-1.914 0-3.197-1.637-3.208-4.093.01-2.445 1.305-4.093 3.208-4.093 1.947 0 3.23 1.615 3.23 4.093 0 2.49-1.283 4.093-3.23 4.093zM89.512 28.708c-1.67 0-3.153.819-3.828 2.113h-.055v-1.99h-2.312v15.94h2.4v-5.896h.045c.719 1.328 2.08 2.09 3.805 2.09 3.02 0 5.023-2.41 5.023-6.128 0-3.728-2.014-6.129-5.078-6.129zm-.609 10.222c-1.913 0-3.197-1.637-3.208-4.093.011-2.445 1.306-4.093 3.208-4.093 1.947 0 3.23 1.615 3.23 4.093 0 2.49-1.283 4.093-3.23 4.093zM101.26 36.397c.155 2.887 2.545 4.713 6.085 4.713 3.783 0 6.162-1.87 6.162-4.857 0-2.334-1.361-3.65-4.636-4.425l-1.759-.431c-2.057-.51-2.898-1.173-2.898-2.301 0-1.416 1.317-2.39 3.241-2.39 1.925 0 3.242.963 3.386 2.556h2.411c-.077-2.755-2.389-4.647-5.763-4.647-3.408 0-5.808 1.892-5.808 4.647 0 2.223 1.36 3.595 4.292 4.303l2.069.498c2.068.509 2.942 1.25 2.942 2.489 0 1.427-1.449 2.467-3.462 2.467-2.102 0-3.64-1.04-3.817-2.622h-2.445zM116.206 26.13v2.7h-1.659v1.892h1.659v6.958c0 2.323.929 3.242 3.33 3.242.52 0 1.084-.056 1.349-.122v-1.892a7.694 7.694 0 01-.818.056c-1.007 0-1.472-.487-1.472-1.527v-6.715h2.302V28.83h-2.302v-2.7h-2.389zM127.777 40.988c3.474 0 5.676-2.367 5.676-6.15 0-3.784-2.213-6.163-5.676-6.163-3.462 0-5.686 2.39-5.686 6.162 0 3.783 2.213 6.15 5.686 6.15zm0-1.991c-2.035 0-3.252-1.538-3.252-4.16 0-2.61 1.217-4.17 3.252-4.17 2.036 0 3.242 1.548 3.242 4.17s-1.206 4.16-3.242 4.16zM135.377 40.844h2.401v-7.169c0-1.692.996-2.787 2.578-2.787.354 0 .851.077 1.051.155v-2.246c-.188-.055-.531-.089-.797-.089-1.416 0-2.522.808-2.898 2.147h-.045V28.83h-2.29v12.014zM147.48 30.633c1.748 0 2.932 1.24 2.987 3.109h-6.096c.133-1.848 1.383-3.109 3.109-3.109zm2.976 6.693c-.332 1.051-1.427 1.715-2.821 1.715-1.969 0-3.275-1.372-3.275-3.452v-.143h8.507v-.841c0-3.64-2.079-5.93-5.376-5.93-3.363 0-5.553 2.445-5.553 6.206 0 3.762 2.168 6.107 5.653 6.107 2.699 0 4.812-1.505 5.155-3.662h-2.29z"/>
  <path fill="#000" fill-rule="evenodd" d="M34.063 9.594c-1.652.069-3.654 1.097-4.84 2.48-1.065 1.227-1.994 3.187-1.744 5.066 1.845.143 3.725-.934 4.873-2.317 1.147-1.386 1.923-3.309 1.712-5.23zm-.465 32.696c2.239-.042 3.657-2.026 5.028-4.021A18.026 18.026 0 0040.9 33.61l-.008-.003c-.215-.088-4.36-1.766-4.4-6.618-.041-4.006 3.166-6 3.52-6.219l.026-.016c-1.93-2.812-4.937-3.198-6.008-3.242-1.564-.158-3.082.438-4.322.925-.789.31-1.465.575-1.97.575-.56 0-1.255-.275-2.035-.583-1.02-.404-2.185-.864-3.389-.842-2.787.041-5.359 1.616-6.794 4.104-2.899 5.01-.743 12.434 2.08 16.497 1.383 1.987 3.026 4.223 5.188 4.142.965-.038 1.652-.33 2.362-.631.82-.348 1.673-.71 3.023-.71 1.285 0 2.098.35 2.88.688.747.322 1.466.632 2.544.612z" clip-rule="evenodd"/>
</svg>
