<svg width="30" height="29" viewBox="0 0 30 29" fill="none" xmlns="http://www.w3.org/2000/svg">
<path fill-rule="evenodd" clip-rule="evenodd" d="M21.3929 0.596216C21.0632 0.350224 20.594 0.585578 20.594 0.996999V5.43777H1.53505C0.982765 5.43777 0.53505 5.88549 0.53505 6.43777V8.06277C0.53505 8.61506 0.982766 9.06277 1.53505 9.06277H20.594V13.5035C20.594 13.9149 21.0632 14.1503 21.3929 13.9043L29.7762 7.65104C30.0442 7.45109 30.0442 7.04943 29.7762 6.84947L21.3929 0.596216ZM9.65275 23.5628V28.0035C9.65275 28.4149 9.18357 28.6503 8.85379 28.4043L0.470578 22.151C0.202516 21.9511 0.202516 21.5494 0.470577 21.3495L8.85379 15.0962C9.18357 14.8502 9.65275 15.0856 9.65275 15.497V19.9378H28.7117C29.264 19.9378 29.7117 20.3855 29.7117 20.9378V22.5628C29.7117 23.1151 29.264 23.5628 28.7117 23.5628H9.65275Z" fill="#222222"/>
</svg>
