<svg width="29" height="29" viewBox="0 0 29 29" fill="none" xmlns="http://www.w3.org/2000/svg">
<path fill-rule="evenodd" clip-rule="evenodd" d="M2.60156 14.3999C2.60156 21.0273 7.97415 26.3999 14.6016 26.3999C21.229 26.3999 26.6016 21.0273 26.6016 14.3999C26.6016 7.77249 21.229 2.3999 14.6016 2.3999C7.97415 2.3999 2.60156 7.77249 2.60156 14.3999ZM14.6016 0.399902C6.86958 0.399902 0.601562 6.66792 0.601562 14.3999C0.601562 22.1319 6.86958 28.3999 14.6016 28.3999C22.3335 28.3999 28.6016 22.1319 28.6016 14.3999C28.6016 6.66792 22.3335 0.399902 14.6016 0.399902Z" fill="#222222"/>
<path d="M16.4518 6.3999V14.1529H7.60156L16.4518 6.3999Z" fill="#222222"/>
<path d="M12.038 21.9038V14.1508H20.8882L12.038 21.9038Z" fill="#222222"/>
</svg>
