<svg width="25" height="32" viewBox="0 0 25 32" fill="none" xmlns="http://www.w3.org/2000/svg">
<path fill-rule="evenodd" clip-rule="evenodd" d="M4.09995 29.2388H21.1C22.1769 29.2388 23.05 28.3607 23.05 27.2775V16.188C23.05 15.632 22.8153 15.1022 22.4044 14.7302L13.1829 6.38276C12.8248 6.05863 12.3601 5.87929 11.8784 5.87929H4.09995C3.023 5.87929 2.14995 6.75739 2.14995 7.84058V27.2775C2.14995 28.3607 3.023 29.2388 4.09995 29.2388ZM4.09995 3.918C1.94604 3.918 0.199951 5.6742 0.199951 7.84058V27.2775C0.199951 29.4438 1.94604 31.2 4.09995 31.2H21.1C23.2539 31.2 25 29.4438 25 27.2775V16.188C25 15.076 24.5307 14.0163 23.7089 13.2724L14.4873 4.92495C13.7712 4.27669 12.8418 3.918 11.8784 3.918H4.09995Z" fill="#222222"/>
<path fill-rule="evenodd" clip-rule="evenodd" d="M21.1 29.2388H4.09995C3.023 29.2388 2.14995 28.3607 2.14995 27.2775V7.84058C2.14995 6.75739 3.023 5.87929 4.09995 5.87929H21.1C22.1769 5.87929 23.05 6.75739 23.05 7.84058V27.2775C23.05 28.3607 22.1769 29.2388 21.1 29.2388ZM21.1 3.918C23.2539 3.918 25 5.6742 25 7.84058V27.2775C25 29.4438 23.2539 31.2 21.1 31.2H4.09995C1.94604 31.2 0.199951 29.4438 0.199951 27.2775V7.84058C0.199951 5.6742 1.94604 3.918 4.09995 3.918H21.1Z" fill="#222222"/>
<path d="M3.29995 1.96928C3.29995 1.32353 3.82042 0.800049 4.46245 0.800049H9.88745C10.5295 0.800049 11.05 1.32353 11.05 1.96928C11.05 2.61503 10.5295 3.13851 9.88745 3.13851H4.46245C3.82042 3.13851 3.29995 2.61503 3.29995 1.96928Z" fill="#222222"/>
<path d="M15.0245 16.4899C16.2536 17.7261 16.2536 19.7304 15.0245 20.9666C13.7954 22.2028 11.8027 22.2028 10.5736 20.9666C9.34452 19.7304 9.34452 17.7261 10.5736 16.4899L12.7991 14.2516L15.0245 16.4899Z" fill="#222222"/>
</svg>
