<svg width="23" height="29" viewBox="0 0 23 29" fill="none" xmlns="http://www.w3.org/2000/svg">
<g clip-path="url(#clip0_6865_43535)">
<path fill-rule="evenodd" clip-rule="evenodd" d="M2.66635 24.8646V13.9959C2.66635 12.9942 3.64673 12.1219 4.4183 12.1219H19.1847C20.0735 12.1219 20.9367 13.0874 20.9367 13.9959V24.8646C20.9367 25.9826 19.9825 26.801 18.8093 26.801H4.79373C3.62729 26.801 2.66635 25.9834 2.66635 24.8646ZM5.04399 7.87441V10.0606C3.60662 10.0606 2.76595 10.3089 1.77468 11.2942C0.995443 12.0688 0.601562 13.0506 0.601562 14.2457V24.6147C0.601562 26.3022 1.43167 27.6353 2.74912 28.3424C3.09187 28.5264 3.80468 28.7998 4.29317 28.7998H19.1847C21.2107 28.7998 23.0015 26.9315 23.0015 24.6147V14.3706C23.0015 13.0316 22.5734 12.0325 21.8918 11.3558C21.0988 10.5686 20.2284 10.0606 18.997 10.0606H7.1088C7.1088 7.70195 6.81017 5.89086 8.4999 4.20353C9.81742 2.88791 11.841 2.46176 13.5811 3.16204C14.0423 3.34767 14.6285 3.67568 14.9471 3.98462C15.3802 4.40469 15.6183 4.65807 15.9349 5.18469C16.4368 6.0194 16.3192 6.3128 17.3077 6.3128C17.762 6.3128 18.1836 5.76266 18.1836 5.31339C18.1836 4.52911 16.8006 2.81873 16.0118 2.23457C11.3576 -1.21238 5.04399 1.89788 5.04399 7.87441Z" fill="#222222"/>
<path fill-rule="evenodd" clip-rule="evenodd" d="M9.98828 19.1177C9.98828 20.3434 10.7513 20.372 10.8036 20.8647C10.9262 22.0182 10.2808 24.1148 11.8028 24.1148C12.2681 24.1148 12.6789 23.7821 12.7787 23.4025C12.8805 23.0148 12.7681 21.4985 12.7992 20.9244C12.8178 20.5801 12.9292 20.5882 13.1336 20.3838C14.1656 19.3519 13.4448 17.3687 11.9279 17.3687C11.3386 17.3687 10.8919 17.4426 10.4721 17.9141C10.2292 18.187 9.9883 18.6228 9.9883 19.1176L9.98828 19.1177Z" fill="#222222"/>
</g>
<defs>
<clipPath id="clip0_6865_43535">
<rect width="22.4" height="28" fill="white" transform="translate(0.601562 0.799805)"/>
</clipPath>
</defs>
</svg>
