<svg width="41" height="25" viewBox="0 0 41 25" fill="none" xmlns="http://www.w3.org/2000/svg">
<path d="M2.47215 7.01302C1.83014 3.90999 4.1997 1 7.36845 1H33.6315C36.8003 1 39.1699 3.90999 38.5279 7.01303L35.9902 19.2783C35.5098 21.6001 33.4649 23.2653 31.0939 23.2653H9.9061C7.53514 23.2653 5.49017 21.6001 5.0098 19.2783L2.47215 7.01302Z" stroke="#222222" stroke-width="2"/>
<rect x="8.36719" y="11.2441" width="24.2653" height="2.5102" rx="1.2551" fill="#222222"/>
<circle cx="10.4582" cy="7.47971" r="1.2551" fill="#222222"/>
<circle cx="15.4778" cy="7.47971" r="1.2551" fill="#222222"/>
<circle cx="20.5012" cy="7.47971" r="1.2551" fill="#222222"/>
<circle cx="25.5207" cy="7.47971" r="1.2551" fill="#222222"/>
<circle cx="30.5403" cy="7.47971" r="1.2551" fill="#222222"/>
<circle cx="12.9699" cy="18.3567" r="1.2551" fill="#222222"/>
<circle cx="17.9895" cy="18.3567" r="1.2551" fill="#222222"/>
<circle cx="23.009" cy="18.3567" r="1.2551" fill="#222222"/>
<circle cx="28.0324" cy="18.3567" r="1.2551" fill="#222222"/>
</svg>
