<svg width="69" height="18" viewBox="0 0 69 18" fill="none" xmlns="http://www.w3.org/2000/svg">
<path fill-rule="evenodd" clip-rule="evenodd" d="M51.5592 7.8353V10.7204C51.5583 11.6041 51.8988 12.4521 52.5058 13.078C53.1128 13.7039 53.9367 14.0564 54.7965 14.0583H56.3284V17.1938H54.8032C53.4005 17.1928 52.0384 16.7098 50.9335 15.8215C49.8287 14.9332 49.0445 13.6907 48.7058 12.2915C48.5739 11.7801 48.5088 11.2529 48.5122 10.7238V5.7667V0H51.5592V4.6998H56.3284V7.8353H51.5592ZM66.0799 12.2298L65.0019 13.3379C64.8293 13.507 64.6403 13.6575 64.4379 13.7873L64.2644 13.8936C64.073 14.0085 63.8706 14.1028 63.6603 14.1749C63.5032 14.2263 63.3426 14.2653 63.1797 14.2915H63.1597C62.9956 14.3212 62.8291 14.335 62.6624 14.3327H62.5857C62.4437 14.3328 62.302 14.3213 62.1618 14.2984C61.9963 14.2745 61.8333 14.2354 61.6746 14.1818L62.6758 13.1526L64.8317 10.9365L65.8096 9.90735L68.109 7.55401C67.8509 7.09661 67.5331 6.67763 67.1646 6.30873C66.8002 5.93087 66.3896 5.60337 65.9431 5.33446C64.9572 4.71904 63.8259 4.3936 62.6724 4.3936C61.519 4.3936 60.3877 4.71904 59.4018 5.33446C59.0735 5.53472 58.7631 5.76431 58.474 6.02057L58.1903 6.30187C58.0568 6.43909 57.9367 6.57288 57.8132 6.7204C57.7867 6.75184 57.7627 6.78455 57.7389 6.81699C57.7237 6.83764 57.7086 6.85818 57.6931 6.8782L57.653 6.93309C57.5038 7.12892 57.3699 7.33653 57.2525 7.55401C57.0888 7.83286 56.946 8.12416 56.8253 8.42536C56.7891 8.50205 56.7579 8.58112 56.7319 8.66207C56.6952 8.7226 56.6713 8.79039 56.6618 8.86104L56.5984 9.08403C56.4948 9.44499 56.4222 9.81461 56.3815 10.1886C56.3738 10.2306 56.3682 10.273 56.3648 10.3156C56.3236 10.7124 56.3236 11.1126 56.3648 11.5094C56.3682 11.552 56.3738 11.5943 56.3815 11.6363C56.4221 12.0104 56.4947 12.38 56.5984 12.7409L56.6618 12.9639C56.6713 13.0346 56.6952 13.1024 56.7319 13.1629C56.7582 13.2438 56.7894 13.3228 56.8253 13.3996C56.938 13.7108 57.0742 14.0124 57.2325 14.3018C57.3499 14.5193 57.4838 14.7269 57.633 14.9228L57.6764 14.9777C57.6964 15.0034 57.7156 15.03 57.7348 15.0565L57.7348 15.0566C57.754 15.0832 57.7732 15.1097 57.7932 15.1355C57.9167 15.283 58.0368 15.4168 58.1703 15.554C58.3119 15.7017 58.4612 15.8414 58.6175 15.9725C58.6641 16.0088 58.7087 16.0477 58.751 16.0891C58.8845 16.1921 59.0147 16.2881 59.1582 16.3807C59.2289 16.4358 59.3036 16.4851 59.3818 16.5283L59.4619 16.5694C59.5591 16.6377 59.6618 16.6974 59.7689 16.7478C59.8116 16.7729 59.853 16.7903 59.8948 16.8079L59.8948 16.8079C59.9216 16.8191 59.9484 16.8304 59.9758 16.8439C60.0459 16.8782 60.1894 16.9468 60.3096 16.9914H60.3296C60.504 17.0732 60.6849 17.1398 60.8703 17.1903H60.9337L61.0905 17.2315L61.2674 17.2795L61.4109 17.3104C61.5203 17.3404 61.6319 17.3611 61.7446 17.3721L61.8982 17.3927L62.0684 17.4133C62.2646 17.434 62.4618 17.4444 62.6591 17.4442C62.8531 17.4444 63.0469 17.4341 63.2398 17.4133C63.2846 17.4107 63.3292 17.4049 63.3733 17.3962L63.6736 17.3516C63.7546 17.3516 63.8327 17.3336 63.9159 17.3145L63.934 17.3104C63.9794 17.3052 64.0242 17.2949 64.0675 17.2795C64.1039 17.2795 64.1404 17.2668 64.1769 17.254C64.1971 17.2469 64.2174 17.2398 64.2377 17.2349L64.4045 17.1903H64.4646C64.65 17.1399 64.8308 17.0733 65.0053 16.9914H65.022C65.0933 16.9625 65.1632 16.9307 65.2354 16.8979L65.2355 16.8979C65.2747 16.8801 65.3146 16.862 65.3557 16.8439C65.3806 16.8329 65.401 16.8241 65.4185 16.8167C65.431 16.8115 65.442 16.8069 65.4519 16.8027C65.4937 16.7853 65.5181 16.7752 65.5626 16.7512C65.6708 16.701 65.7747 16.6413 65.873 16.5728L65.9464 16.5317C66.0246 16.4887 66.0994 16.4394 66.17 16.3842C66.3135 16.2915 66.4437 16.1955 66.5772 16.0926C66.6195 16.0512 66.6641 16.0122 66.7107 15.9759C66.867 15.8449 67.0163 15.7052 67.1579 15.5574L68.2359 14.4494L66.0799 12.2298ZM60.5031 10.9434L59.5019 11.9725C59.3084 11.3102 59.3084 10.604 59.5019 9.94166C59.577 9.70164 59.6789 9.4714 59.8056 9.25555L59.8624 9.16636C59.9926 8.95048 60.146 8.75027 60.3196 8.56945C60.7439 8.13274 61.2765 7.82384 61.8596 7.67628C62.4426 7.52872 63.0539 7.54813 63.6269 7.7324L62.6491 8.76156L60.5031 10.9434ZM28.618 4.41179C27.1998 4.41176 25.8226 4.90041 24.7064 5.79964C23.5901 6.69888 22.7994 7.95679 22.4605 9.37232C22.2027 10.4018 22.2027 11.4817 22.4605 12.5112C22.7981 13.9285 23.5885 15.1883 24.7051 16.089C25.8218 16.9897 27.2002 17.4793 28.6197 17.4793C30.0391 17.4793 31.4175 16.9897 32.5342 16.089C33.6509 15.1883 34.4413 13.9285 34.7788 12.5112C35.0367 11.4817 35.0367 10.4018 34.7788 9.37232C34.4398 7.95622 33.6486 6.69788 32.5317 5.79859C31.4148 4.89929 30.0368 4.41099 28.618 4.41179ZM28.618 14.3328C27.9659 14.3328 27.3284 14.1341 26.7861 13.7616C26.2439 13.3892 25.8212 12.8599 25.5717 12.2406C25.3221 11.6212 25.2568 10.9397 25.384 10.2823C25.5113 9.62479 25.8253 9.02087 26.2864 8.54686C26.7476 8.07285 27.3351 7.75005 27.9747 7.61927C28.6144 7.48849 29.2773 7.55561 29.8799 7.81214C30.4824 8.06867 30.9973 8.50309 31.3596 9.06047C31.722 9.61784 31.9153 10.2731 31.9153 10.9435C31.9153 11.3886 31.8301 11.8293 31.6644 12.2406C31.4986 12.6518 31.2558 13.0254 30.9496 13.3401C30.6434 13.6549 30.2799 13.9045 29.8799 14.0748C29.4798 14.2452 29.051 14.3328 28.618 14.3328ZM15.5555 4.4185C14.6691 4.41867 13.7931 4.61481 12.9869 4.99363C12.1808 5.37245 11.4633 5.92509 10.8832 6.61403C10.1411 5.7364 9.17927 5.08445 8.10218 4.7289C7.0251 4.37335 5.87386 4.32778 4.77337 4.59715C3.67288 4.86651 2.66517 5.44053 1.85958 6.2569C1.05398 7.07327 0.481267 8.10083 0.203575 9.22808C0.0684398 9.73909 -1.48789e-05 10.2663 2.42577e-09 10.7958V17.1903H3.05036V10.7924C3.07428 9.95024 3.41589 9.15065 4.00295 8.5627C4.59002 7.97475 5.37652 7.64452 6.19616 7.64185C7.01581 7.63917 7.80433 7.96427 8.39501 8.54838C8.98569 9.13249 9.33223 9.92983 9.36135 10.7718V17.1938H12.4117V12.3601V10.7924C12.4117 9.93306 12.7438 9.10893 13.335 8.50129C13.9261 7.89365 14.7279 7.55227 15.5639 7.55227C16.3999 7.55227 17.2016 7.89365 17.7928 8.50129C18.3839 9.10893 18.716 9.93306 18.716 10.7924V17.1869H21.7664V10.7924C21.7697 10.2633 21.7046 9.73611 21.5728 9.22465C21.2338 7.8491 20.4578 6.62927 19.3677 5.75861C18.2777 4.88795 16.936 4.41632 15.5555 4.4185ZM38.0317 5.7597C39.1198 4.88979 40.459 4.41782 41.8375 4.4185C43.2206 4.41639 44.5647 4.88912 45.6566 5.76169C46.7486 6.63425 47.5257 7.85665 47.8648 9.23494C47.9999 9.74594 48.0684 10.2731 48.0684 10.8027V17.1869H45.018V10.8027C45.018 9.93835 44.684 9.10942 44.0894 8.49824C43.4948 7.88706 42.6884 7.5437 41.8475 7.5437C41.0066 7.5437 40.2002 7.88706 39.6056 8.49824C39.011 9.10942 38.677 9.93835 38.677 10.8027V17.1731H35.6266V10.789C35.6266 10.2594 35.6951 9.73223 35.8302 9.22123C36.1689 7.84774 36.9436 6.6296 38.0317 5.7597Z" fill="url(#paint0_linear_6899_49895)"/>
<defs>
<linearGradient id="paint0_linear_6899_49895" x1="84.7133" y1="17.4793" x2="-53.8908" y2="17.4793" gradientUnits="userSpaceOnUse">
<stop stop-color="#FF5823"/>
<stop offset="1" stop-color="#FF36C7"/>
</linearGradient>
</defs>
</svg>
