<svg width="109" height="18" viewBox="0 0 109 18" fill="none" xmlns="http://www.w3.org/2000/svg">
<path fill-rule="evenodd" clip-rule="evenodd" d="M8.73104 14.5815L3.98739 17.6336C3.45702 17.9749 2.78531 17.49 2.93265 16.8723L4.3194 11.0586L0.25973 7.73286C-0.228798 7.33265 0.0133989 6.53493 0.63996 6.48049L5.92124 6.02169L8.09373 0.687464C8.33163 0.103326 9.15065 0.104444 9.38699 0.68923L11.5421 6.02169L16.8597 6.48082C17.4872 6.535 17.7292 7.33447 17.2391 7.73419L13.1629 11.0586L14.5472 16.8763C14.694 17.4935 14.0233 17.978 13.493 17.6376L8.73104 14.5815Z" fill="#FF472E"/>
<path fill-rule="evenodd" clip-rule="evenodd" d="M31.481 14.5815L26.7374 17.6336C26.207 17.9749 25.5353 17.49 25.6827 16.8723L27.0694 11.0586L23.0097 7.73286C22.5212 7.33265 22.7634 6.53493 23.39 6.48049L28.6712 6.02169L30.8437 0.687464C31.0816 0.103326 31.9006 0.104444 32.137 0.68923L34.2921 6.02169L39.6097 6.48082C40.2372 6.535 40.4792 7.33447 39.9891 7.73419L35.9129 11.0586L37.2972 16.8763C37.444 17.4935 36.7733 17.978 36.243 17.6376L31.481 14.5815Z" fill="#FF472E"/>
<path fill-rule="evenodd" clip-rule="evenodd" d="M54.231 14.5815L49.4874 17.6336C48.957 17.9749 48.2853 17.49 48.4327 16.8723L49.8194 11.0586L45.7597 7.73286C45.2712 7.33265 45.5134 6.53493 46.14 6.48049L51.4212 6.02169L53.5937 0.687464C53.8316 0.103326 54.6506 0.104444 54.887 0.68923L57.0421 6.02169L62.3597 6.48082C62.9872 6.535 63.2292 7.33447 62.7391 7.73419L58.6629 11.0586L60.0472 16.8763C60.194 17.4935 59.5233 17.978 58.993 17.6376L54.231 14.5815Z" fill="#FF472E"/>
<path fill-rule="evenodd" clip-rule="evenodd" d="M76.981 14.5815L72.2374 17.6336C71.707 17.9749 71.0353 17.49 71.1827 16.8723L72.5694 11.0586L68.5097 7.73286C68.0212 7.33265 68.2634 6.53493 68.89 6.4805L74.1712 6.02169L76.3437 0.687464C76.5816 0.103326 77.4006 0.104444 77.637 0.68923L79.7921 6.02169L85.1097 6.48082C85.7372 6.535 85.9792 7.33447 85.4891 7.73419L81.4129 11.0586L82.7972 16.8763C82.944 17.4935 82.2733 17.978 81.743 17.6376L76.981 14.5815Z" fill="#FF472E"/>
<path fill-rule="evenodd" clip-rule="evenodd" d="M99.731 14.5815L94.9874 17.6336C94.457 17.9749 93.7853 17.49 93.9327 16.8723L95.3194 11.0586L91.2597 7.73286C90.7712 7.33265 91.0134 6.53493 91.64 6.48049L96.9212 6.02169L99.0937 0.687464C99.3316 0.103326 100.151 0.104444 100.387 0.68923L102.542 6.02169L107.86 6.48082C108.487 6.535 108.729 7.33447 108.239 7.73419L104.163 11.0586L105.547 16.8763C105.694 17.4935 105.023 17.978 104.493 17.6376L99.731 14.5815Z" fill="#ECF0F3"/>
</svg>
