<svg width="35" height="38" viewBox="0 0 35 38" fill="none" xmlns="http://www.w3.org/2000/svg">
<path d="M17.75 36.5C17.0408 36.5 15.6817 36.0451 13.9586 34.9666C12.3004 33.9287 10.5083 32.4402 8.96818 30.6761C4.6352 25.713 2 18.7727 2 9.76311C2 9.3605 2.26482 9.02121 2.62695 8.91925C8.70534 7.20787 13.5858 4.81223 17.203 1.70402C17.5196 1.43199 17.9804 1.43199 18.297 1.70402C21.9142 4.81223 26.7947 7.20787 32.873 8.91925C33.2352 9.02121 33.5 9.3605 33.5 9.76311C33.5 18.7727 30.8648 25.713 26.5318 30.6761C24.9917 32.4402 23.1996 33.9287 21.5414 34.9666C19.8183 36.0451 18.4592 36.5 17.75 36.5Z" stroke="black" stroke-width="3"/>
<path d="M11.8359 18.5L16.4246 23.5L25.1431 14" stroke="black" stroke-width="3"/>
</svg>
