<svg width="25" height="32" viewBox="0 0 25 32" fill="none" xmlns="http://www.w3.org/2000/svg">
<path fill-rule="evenodd" clip-rule="evenodd" d="M4.09922 29.2385H21.0992C22.1762 29.2385 23.0492 28.3604 23.0492 27.2772V16.1878C23.0492 15.6318 22.8146 15.1019 22.4037 14.73L13.1821 6.38252C12.8241 6.05839 12.3594 5.87904 11.8776 5.87904H4.09922C3.02227 5.87904 2.14922 6.75714 2.14922 7.84034V27.2772C2.14922 28.3604 3.02226 29.2385 4.09922 29.2385ZM4.09922 3.91775C1.94531 3.91775 0.199219 5.67396 0.199219 7.84034V27.2772C0.199219 29.4436 1.94531 31.1998 4.09922 31.1998H21.0992C23.2531 31.1998 24.9992 29.4436 24.9992 27.2772V16.1878C24.9992 15.0758 24.53 14.0161 23.7082 13.2722L14.4866 4.9247C13.7705 4.27645 12.8411 3.91775 11.8776 3.91775H4.09922Z" fill="#222222"/>
<path fill-rule="evenodd" clip-rule="evenodd" d="M21.0992 29.2385H4.09922C3.02226 29.2385 2.14922 28.3604 2.14922 27.2772V7.84034C2.14922 6.75714 3.02227 5.87904 4.09922 5.87904H21.0992C22.1762 5.87904 23.0492 6.75714 23.0492 7.84034V27.2772C23.0492 28.3604 22.1762 29.2385 21.0992 29.2385ZM21.0992 3.91775C23.2531 3.91775 24.9992 5.67396 24.9992 7.84034V27.2772C24.9992 29.4436 23.2531 31.1998 21.0992 31.1998H4.09922C1.94531 31.1998 0.199219 29.4436 0.199219 27.2772V7.84034C0.199219 5.67396 1.94531 3.91775 4.09922 3.91775H21.0992Z" fill="#222222"/>
<path d="M3.29922 1.96904C3.29922 1.32329 3.81969 0.799805 4.46172 0.799805H9.88672C10.5287 0.799805 11.0492 1.32329 11.0492 1.96904C11.0492 2.61478 10.5287 3.13827 9.88672 3.13827H4.46172C3.81969 3.13827 3.29922 2.61478 3.29922 1.96904Z" fill="#222222"/>
<path d="M15.0238 16.4897C16.2528 17.7259 16.2528 19.7301 15.0238 20.9663Lnan nanL15.0238 20.9663C13.7947 22.2025 11.802 22.2025 10.5729 20.9663Lnan nanL10.5729 20.9663C9.34379 19.7301 9.34379 17.7259 10.5729 16.4897L12.7983 14.2513L15.0238 16.4897Z" fill="#222222"/>
</svg>
